<?xml version="1.0" standalone="no"?>
<!DOCTYPE svg PUBLIC "-//W3C//DTD SVG 20010904//EN"
 "http://www.w3.org/TR/2001/REC-SVG-20010904/DTD/svg10.dtd">
<svg version="1.0" xmlns="http://www.w3.org/2000/svg"
 width="310.000000pt" height="310.000000pt" viewBox="0 0 310.000000 310.000000"
 preserveAspectRatio="xMidYMid meet">
<metadata>
Created by potrace 1.11, written by Peter Selinger 2001-2013
</metadata>
<g transform="translate(0.000000,310.000000) scale(0.100000,-0.100000)"
fill="#000000" stroke="none">
<path d="M815 2974 c-342 -50 -561 -319 -558 -685 1 -170 91 -355 252 -518 42
-43 56 -62 48 -70 -6 -6 -16 -11 -23 -11 -7 0 -14 -4 -16 -8 -1 -5 -58 -45
-124 -90 -119 -79 -139 -98 -126 -120 8 -12 124 -7 292 13 19 2 71 7 115 10
44 4 96 8 115 10 19 2 67 7 105 10 39 4 76 7 83 8 10 0 12 20 7 91 -3 50 -8
132 -11 181 -22 415 -28 455 -74 455 -32 0 -53 -33 -110 -172 -30 -73 -63
-153 -73 -177 -19 -45 -20 -45 -32 -20 -60 115 -74 275 -34 398 35 106 127
221 219 272 160 89 364 74 531 -37 67 -44 155 -132 191 -189 l19 -30 -2 85
c-7 324 -238 560 -584 595 -103 11 -132 11 -210 -1z"/>
<path d="M1741 2444 c-45 -91 -81 -167 -81 -169 0 -1 -33 -72 -74 -156 -41
-85 -74 -154 -73 -155 2 -2 163 -85 429 -223 97 -50 188 -91 202 -91 30 0 50
31 40 63 -4 12 -58 90 -120 175 -63 84 -114 154 -114 157 0 2 8 2 18 1 9 -2
38 -6 63 -10 108 -16 227 -81 300 -165 46 -53 105 -169 116 -227 35 -197 -58
-396 -238 -510 -81 -51 -242 -99 -321 -96 -31 1 -20 -14 30 -41 103 -56 168
-75 279 -84 279 -21 567 203 672 523 26 79 29 101 27 204 -2 100 -6 125 -30
190 -40 103 -86 173 -170 255 -142 141 -285 199 -486 198 -95 -1 -184 -13
-265 -37 -27 -9 -50 -14 -52 -12 -4 4 -11 85 -18 236 -7 121 -12 139 -42 140
-6 0 -48 -75 -92 -166z"/>
<path d="M1289 1980 c-74 -21 -123 -86 -122 -160 1 -59 22 -101 69 -137 51
-38 133 -39 187 -3 128 87 81 281 -73 303 -19 3 -47 1 -61 -3z"/>
<path d="M1586 1655 c-59 -21 -87 -44 -108 -92 -60 -135 75 -277 213 -225 57
22 114 112 104 164 -15 78 -28 100 -77 132 -42 27 -90 35 -132 21z"/>
<path d="M1135 1554 c-66 -34 -97 -82 -97 -149 0 -94 76 -169 168 -167 180 2
226 246 61 320 -38 17 -96 15 -132 -4z"/>
<path d="M600 1358 c-30 -17 -89 -65 -131 -107 -120 -120 -169 -246 -164 -417
2 -49 6 -101 9 -115 102 -471 496 -711 909 -555 93 35 176 85 229 138 97 97
204 299 225 423 9 57 10 57 180 -26 155 -75 193 -86 193 -52 0 8 -80 128 -177
266 -97 139 -188 269 -202 290 -13 20 -27 37 -30 36 -3 0 -132 -85 -286 -187
-183 -122 -285 -197 -295 -215 -14 -26 -14 -29 10 -47 25 -20 30 -21 150 -5
19 3 53 7 75 9 22 3 73 10 114 16 41 6 76 8 79 6 8 -9 -38 -73 -82 -114 -201
-186 -495 -188 -679 -6 -48 48 -113 152 -124 198 -1 6 -7 29 -12 51 -26 100
-10 246 39 367 16 40 28 73 27 75 -2 1 -27 -12 -57 -29z"/>
</g>
</svg>
