<svg id="2444e5d0-e33d-4cb6-8574-a2b142c3c33d" data-name="Camada 1" xmlns="http://www.w3.org/2000/svg" viewBox="0 0 35.59 8.01"><defs><style>.dd6034b0-8f99-43c3-961e-2671ae278517{fill:#acacac;}</style></defs><title>gosites</title><path class="dd6034b0-8f99-43c3-961e-2671ae278517" d="M18.35,6.41a2.72,2.72,0,0,0,1.52.45,1.41,1.41,0,0,0,1.55-1.35,1.56,1.56,0,0,0-1-1.34,2.16,2.16,0,0,1-1.42-1.84A2.22,2.22,0,0,1,21.37.24a2.76,2.76,0,0,1,1.47.38l-0.32.71A2.38,2.38,0,0,0,21.28,1a1.28,1.28,0,0,0-1.41,1.17A1.56,1.56,0,0,0,21,3.5a2.1,2.1,0,0,1,1.37,1.91,2.3,2.3,0,0,1-2.58,2.21A3,3,0,0,1,18,7.14Z" transform="translate(0 0)"/><path class="dd6034b0-8f99-43c3-961e-2671ae278517" d="M22.67,7.52l1-5.14h0.88l-1,5.14H22.67Zm1.14-6.57A0.58,0.58,0,0,1,24.4.35a0.51,0.51,0,0,1,.52.55,0.59,0.59,0,0,1-.6.6,0.52,0.52,0,0,1-.5-0.55" transform="translate(0 0)"/><path class="dd6034b0-8f99-43c3-961e-2671ae278517" d="M27.14,1L26.87,2.38H28.1L28,3.07H26.74L26.26,5.56a4.79,4.79,0,0,0-.09.83,0.43,0.43,0,0,0,.49.49,1.81,1.81,0,0,0,.41,0l0,0.69a2,2,0,0,1-.68.09,1,1,0,0,1-1.08-1,4.49,4.49,0,0,1,.11-1l0.51-2.6H25.13l0.14-.69H26l0.23-1.16Z" transform="translate(0 0)"/><path class="dd6034b0-8f99-43c3-961e-2671ae278517" d="M31.33,7.22a3.58,3.58,0,0,1-1.7.4,1.85,1.85,0,0,1-2-2.06c0-1.55,1.15-3.3,2.8-3.3A1.33,1.33,0,0,1,32,3.58c0,1.35-1.52,1.71-3.42,1.68a2.18,2.18,0,0,0,.11,1,1.17,1.17,0,0,0,1.15.69,2.88,2.88,0,0,0,1.38-.36ZM30.36,3a2,2,0,0,0-1.68,1.62c1.38,0,2.46-.17,2.46-1A0.67,0.67,0,0,0,30.36,3" transform="translate(0 0)"/><path class="dd6034b0-8f99-43c3-961e-2671ae278517" d="M32.21,6.63a2.32,2.32,0,0,0,1.11.32,0.89,0.89,0,0,0,1-.84,1,1,0,0,0-.71-0.94,1.53,1.53,0,0,1-.92-1.3,1.69,1.69,0,0,1,1.86-1.59,2.12,2.12,0,0,1,1.07.26l-0.24.67A1.83,1.83,0,0,0,34.46,3a0.82,0.82,0,0,0-.91.77,1,1,0,0,0,.7.86,1.61,1.61,0,0,1,1,1.35,1.75,1.75,0,0,1-2,1.69A2.29,2.29,0,0,1,32,7.27Z" transform="translate(0 0)"/><path class="dd6034b0-8f99-43c3-961e-2671ae278517" d="M7,7.45A10.74,10.74,0,0,1,4,8,4.79,4.79,0,0,1,1.2,7.16,3.12,3.12,0,0,1,0,4.54,4.08,4.08,0,0,1,1.67,1.17,6.26,6.26,0,0,1,5.47.06,6.58,6.58,0,0,1,7.88.43L7.29,2.13a5.16,5.16,0,0,0-1.91-.35,3.76,3.76,0,0,0-2,.5A2.43,2.43,0,0,0,2.27,4.35,1.83,1.83,0,0,0,4.39,6.22a2,2,0,0,0,.81-0.13L5.46,4.88H4.25L4.57,3.26H7.79Z" transform="translate(0 0)"/><path class="dd6034b0-8f99-43c3-961e-2671ae278517" d="M10.73,8A3.35,3.35,0,0,1,7.11,4.51,4.4,4.4,0,0,1,8.45,1.25,4.76,4.76,0,0,1,11.74,0a3.31,3.31,0,0,1,3.61,3.52,4.41,4.41,0,0,1-1.3,3.25A4.7,4.7,0,0,1,10.75,8h0ZM11,6.33a1.86,1.86,0,0,0,1.32-.57,3,3,0,0,0,.8-2.11c0-1.11-.43-2-1.64-2a1.92,1.92,0,0,0-1.37.6,3.05,3.05,0,0,0-.82,2.11A1.66,1.66,0,0,0,11,6.33h0Z" transform="translate(0 0)"/><path class="dd6034b0-8f99-43c3-961e-2671ae278517" d="M16.09,8A1,1,0,0,1,15,6.92a1.33,1.33,0,0,1,1.37-1.37,1.08,1.08,0,0,1,1.11,1.13A1.3,1.3,0,0,1,16.1,8h0ZM15.75,5.19L16.4,0.13h2.14L17.25,5.19h-1.5Z" transform="translate(0 0)"/></svg>