<svg id="dea8dc5b-5227-4307-824b-aaaf41031811" data-name="Camada 1" xmlns="http://www.w3.org/2000/svg" xmlns:xlink="http://www.w3.org/1999/xlink" viewBox="0 0 313.92 318.3"><defs><style>.cd1b013b-1979-4de2-bae8-8dec0c634067{fill:none;}.f9a31911-122a-44c9-befa-5a43a9bc2520{clip-path:url(#c3a93005-a8f4-4338-8323-bd4171208f36);}.\31 fae819a-f613-4426-b780-f42c0a81dc12{fill:#73d0f4;}.b6e22f46-8f1f-48d0-90e2-c5bbb2f8e263{fill:#3d6889;}</style><clipPath id="c3a93005-a8f4-4338-8323-bd4171208f36" transform="translate(-1.11 -0.66)"><rect class="cd1b013b-1979-4de2-bae8-8dec0c634067" x="1.11" width="313.92" height="319.92"/></clipPath></defs><title>icone-noticias</title><g class="f9a31911-122a-44c9-befa-5a43a9bc2520"><path class="1fae819a-f613-4426-b780-f42c0a81dc12" d="M277.16,71.79a28.19,28.19,0,0,1-56.39,0V66.93H186.26v4.86a28.19,28.19,0,1,1-56.38,0V66.93H95.37v4.86a28.19,28.19,0,0,1-56.39,0V66.93H20.31v41.4H295.83V66.93H277.16v4.86h0Zm0,0" transform="translate(-1.11 -0.66)"/><path class="b6e22f46-8f1f-48d0-90e2-c5bbb2f8e263" d="M305.43,47.73H277.16V28.85a28.19,28.19,0,1,0-56.38,0V47.73H186.26V28.85a28.19,28.19,0,1,0-56.38,0V47.73H95.37V28.85a28.19,28.19,0,1,0-56.39,0V47.73H10.71a9.6,9.6,0,0,0-9.6,9.6V280A39,39,0,0,0,40.06,319h236A39,39,0,0,0,315,280V57.33a9.6,9.6,0,0,0-9.6-9.6h0Zm-9.6,60.6H20.31V66.93H39v4.86a28.19,28.19,0,0,0,56.39,0V66.93h34.51v4.86a28.19,28.19,0,1,0,56.38,0V66.93h34.51v4.86a28.19,28.19,0,0,0,56.39,0V66.93h18.67v41.4ZM240,28.85a9,9,0,1,1,18,0V71.79a9,9,0,0,1-18,0V28.85Zm-90.89,0a9,9,0,1,1,18,0V71.79a9,9,0,1,1-18,0V28.85Zm-90.9,0a9,9,0,1,1,18,0V71.79a9,9,0,0,1-18,0V28.85h0ZM295.83,280a19.77,19.77,0,0,1-19.75,19.74h-236A19.77,19.77,0,0,1,20.31,280V127.53H295.83V280Zm0,0" transform="translate(-1.11 -0.66)"/></g><path class="b6e22f46-8f1f-48d0-90e2-c5bbb2f8e263" d="M48.58,174.85h219a9.6,9.6,0,0,0,0-19.2h-219a9.6,9.6,0,1,0,0,19.2h0Zm0,0" transform="translate(-1.11 -0.66)"/><path class="b6e22f46-8f1f-48d0-90e2-c5bbb2f8e263" d="M48.58,219.36h219a9.6,9.6,0,0,0,0-19.2h-219a9.6,9.6,0,1,0,0,19.2h0Zm0,0" transform="translate(-1.11 -0.66)"/><path class="b6e22f46-8f1f-48d0-90e2-c5bbb2f8e263" d="M48.58,263.87h219a9.6,9.6,0,0,0,0-19.2h-219a9.6,9.6,0,1,0,0,19.2h0Zm0,0" transform="translate(-1.11 -0.66)"/></svg>