<?xml version="1.0" encoding="utf-8"?>
<!-- Generator: Adobe Illustrator 19.2.1, SVG Export Plug-In . SVG Version: 6.00 Build 0)  -->
<!DOCTYPE svg PUBLIC "-//W3C//DTD SVG 1.1//EN" "http://www.w3.org/Graphics/SVG/1.1/DTD/svg11.dtd">
<svg version="1.1" id="_x32_4ef32df-ad01-4c36-bf6d-6ac9930ce126"
	 xmlns="http://www.w3.org/2000/svg" xmlns:xlink="http://www.w3.org/1999/xlink" x="0px" y="0px" viewBox="0 0 20.8 18.4"
	 enable-background="new 0 0 20.8 18.4" xml:space="preserve">
<title>icone-curtir</title>
<g>
	<defs>
		<rect id="SVGID_1_" width="20.9" height="19"/>
	</defs>
	<clipPath id="SVGID_2_">
		<use xlink:href="#SVGID_1_"  overflow="visible"/>
	</clipPath>
	<g clip-path="url(#SVGID_2_)">
		<path fill="#1B6DB5" d="M20.2,10.1c1.1-1,0.7-3.2-1.1-3.2h-4.8c0.2-1,0.4-2.7,0.4-2.9c-0.2-1.2-0.5-2.3-1.1-3.4
			c-0.5-0.6-1.3-0.8-2-0.6c-0.7,0-1.2,0.5-1.3,1.2c0,0,0,2,0.1,2.5C9.9,5,8,8.2,7.4,8.4C7.3,8.3,7.2,8.3,7,8.3H0.9
			C0.4,8.3,0,8.7,0,9.2c0,0,0,0,0,0v8.4c0,0.5,0.4,0.8,0.9,0.8h5.4c0.5,0,0.9-0.4,0.9-0.9v-0.3c0.1,0,0.2,0,0.3,0
			c0.4,0.3,0.9,0.5,1.3,0.5H17c3,0,2.7-2.7,2.4-3.1c0.6-0.6,0.7-1.5,0.4-2.3C20.4,11.7,20.6,10.8,20.2,10.1L20.2,10.1L20.2,10.1z
			 M6.1,17.5H0.9V9.1h5.3V17.5z M18.8,10v0.2c1.4,0.4,0.6,2-0.4,2.1l0,0.2c1.3,0.3,0.7,2-0.4,2.1v0.2c1.1,0.2,0.8,2.1-0.8,2.1H8.8
			c-0.6,0-1.1-0.7-1.5-0.7H6.9V9.8c0.5-0.3,0.9-0.6,1.4-0.9c1.2-1.5,2.3-3.2,3.1-5c0-0.5-0.1-2.7-0.1-2.7c0.4-0.4,1.1-0.5,1.6-0.2
			c0.5,1,0.8,2,1,3.1c0,0-0.4,2.8-0.6,3.7H19C20.4,7.7,20.1,9.7,18.8,10L18.8,10L18.8,10z"/>
	</g>
</g>
</svg>
