<?xml version="1.0" encoding="utf-8"?>
<!-- Generator: Adobe Illustrator 19.2.1, SVG Export Plug-In . SVG Version: 6.00 Build 0)  -->
<!DOCTYPE svg PUBLIC "-//W3C//DTD SVG 1.1//EN" "http://www.w3.org/Graphics/SVG/1.1/DTD/svg11.dtd">
<svg version="1.1" id="aed79130-2610-476c-8381-4bb0a69eac5e"
	 xmlns="http://www.w3.org/2000/svg" xmlns:xlink="http://www.w3.org/1999/xlink" x="0px" y="0px" viewBox="0 0 366.1 386.4"
	 enable-background="new 0 0 366.1 386.4" xml:space="preserve">
<title>icone-parceiros</title>
<path fill="#3BB072" d="M162.9,208.2h2.6c23.4-0.4,42.4-8.6,56.4-24.4c30.8-34.8,25.7-94.2,25.1-99.9c-2-42.6-22.2-63-38.8-72.6
	c-12.4-7.1-26.9-11-43-11.3h-1.4c-8.9,0-26.3,1.4-43,11S83.5,40.9,81.5,83.8c-0.6,5.7-5.7,65.2,25.1,99.9
	C120.5,199.5,139.5,207.8,162.9,208.2L162.9,208.2L162.9,208.2z M102.8,85.8c0-0.2,0.1-0.5,0.1-0.6c2.6-57.4,43.4-63.5,60.8-63.5h1
	c21.6,0.5,58.3,9.3,60.8,63.5c0,0.2,0,0.4,0.1,0.6c0.1,0.6,5.7,55-19.8,83.6c-10.1,11.4-23.5,17-41.2,17.1h-0.8
	c-17.6-0.2-31.1-5.8-41.1-17.1C97.3,141,102.7,86.3,102.8,85.8L102.8,85.8z"/>
<path fill="#3BB072" d="M226.5,210.4c-0.9-0.6-1.4-1-1.5-1c-4.9-3.4-11.6-2.2-15,2.7c-2.3,3.3-2.6,7.5-0.8,11.1
	C214.5,218.3,220.3,214.1,226.5,210.4z"/>
<path fill="#3BB072" d="M200.9,362.9c-12.1,1.3-24.3,2-36.5,2c-77,0-128.1-25.5-141.1-32.9c-1.3-6.4-1.8-17.5-1.7-24.7
	c0-0.6,0.1-1.3,0.1-2c0.6-18.2,2.6-38.2,21.3-44.8c39.8-10.2,71.7-32.5,73-33.4c5-3.3,6.3-10,3-15c-3.3-5-10-6.3-15-3
	c-0.1,0.1-0.3,0.2-0.4,0.3c-0.3,0.2-30.2,21-66.4,30.2c-0.3,0.1-0.6,0.2-0.8,0.2c-34.7,11.9-35.7,49-36.2,64.7c0,0.7,0,1.3-0.1,2
	v0.2c-0.1,4.2-0.2,25.5,4.1,36.2c0.8,2.1,2.3,3.8,4.2,5c2.4,1.6,59.9,38.2,156.2,38.2c19.4,0,38.8-1.5,58-4.6
	C214.4,376.4,207.1,370.1,200.9,362.9z"/>
<path fill="#3BB072" d="M339,233.2c-35.4-34.2-91.8-33.3-126,2.1s-33.3,91.8,2.1,126s91.8,33.3,126-2.1c0,0,0,0,0,0
	C375.3,323.8,374.3,267.5,339,233.2L339,233.2L339,233.2z M224.6,351.6c-30-28.9-30.8-76.7-1.9-106.7s76.7-30.8,106.7-1.9
	s30.8,76.7,1.9,106.7c0,0,0,0,0,0C302.3,379.6,254.6,380.5,224.6,351.6L224.6,351.6z"/>
<path fill="#3BB072" d="M325,296.5c-0.1-3.8-3.2-6.8-6.9-6.7c0,0,0,0-0.1,0l-34.3,0.6l-0.5-34.3c-0.2-3.8-3.4-6.7-7.2-6.5
	c-3.6,0.2-6.5,3.1-6.5,6.8l0.5,34.3l-34.3,0.6c-3.8,0.1-6.8,3.2-6.8,7c0,0,0,0,0,0c0.1,3.8,3.2,6.8,6.9,6.7c0,0,0,0,0.1,0l34.3-0.6
	l0.6,34.3c0.1,3.8,3.2,6.8,6.9,6.7c0,0,0,0,0.1,0c3.8-0.1,6.8-3.2,6.8-7L284,304l34.3-0.6C322.1,303.4,325.1,300.3,325,296.5
	L325,296.5L325,296.5z"/>
</svg>
