<?xml version="1.0" encoding="utf-8"?>
<!-- Generator: Adobe Illustrator 19.2.1, SVG Export Plug-In . SVG Version: 6.00 Build 0)  -->
<!DOCTYPE svg PUBLIC "-//W3C//DTD SVG 1.1//EN" "http://www.w3.org/Graphics/SVG/1.1/DTD/svg11.dtd">
<svg version="1.1" id="_x36_baaf41d-2a30-427f-8a7f-59d10a210503"
	 xmlns="http://www.w3.org/2000/svg" xmlns:xlink="http://www.w3.org/1999/xlink" x="0px" y="0px" viewBox="0 0 110.7 153"
	 enable-background="new 0 0 110.7 153" xml:space="preserve">
<title>icone-restrito</title>
<path fill="#F48806" d="M55.3,0C30.6,0,10.6,20,10.6,44.8v25.6c-0.1,0.4-0.3,0.7-0.6,0.9c-2.4,0.8-4.4,1.5-6.2,2.2
	C1.6,74.4,0.1,76.6,0,79v58.7c0.1,2.4,1.5,4.6,3.7,5.5c33.1,13.1,70.1,13.1,103.2,0c2.2-1,3.7-3.1,3.7-5.5V78.9
	c-0.1-2.4-1.5-4.6-3.8-5.5c-1.8-0.7-3.8-1.4-6.2-2.2c-0.3-0.2-0.6-0.5-0.6-0.9V44.8C100.1,20,80,0,55.3,0L55.3,0z M43.2,96.8
	c0-6.7,5.5-12.2,12.2-12.2s12.2,5.5,12.2,12.2c0,4.3-2.4,8.2-6.1,10.3v20.2c-0.1,3.4-3,6-6.3,5.8c-3.2-0.1-5.7-2.7-5.8-5.8v-20.2
	C45.5,105,43.2,101.1,43.2,96.8L43.2,96.8L43.2,96.8z M84.7,44.8v22.1c-19.4-4.2-39.4-4.2-58.7,0V44.8c0-16.2,13.1-29.4,29.4-29.4
	S84.7,28.5,84.7,44.8L84.7,44.8z"/>
</svg>
