<?xml version="1.0" encoding="utf-8"?>
<!-- Generator: Adobe Illustrator 19.2.1, SVG Export Plug-In . SVG Version: 6.00 Build 0)  -->
<!DOCTYPE svg PUBLIC "-//W3C//DTD SVG 1.1//EN" "http://www.w3.org/Graphics/SVG/1.1/DTD/svg11.dtd">
<svg version="1.1" id="_x33_c6896d0-9b18-4035-bf32-a18ed94cf808"
	 xmlns="http://www.w3.org/2000/svg" xmlns:xlink="http://www.w3.org/1999/xlink" x="0px" y="0px" viewBox="0 0 381.9 390.5"
	 enable-background="new 0 0 381.9 390.5" xml:space="preserve">
<path fill="#F4F3F3" d="M138,215.4c0-4.9-4-8.9-8.9-8.9l0,0h-31c-4.9,0-8.9,4-8.9,8.9l0,0v30.9c0,4.9,4,8.9,8.9,8.9l0,0h30.9
	c4.9,0,8.9-4,8.9-8.9l0,0L138,215.4L138,215.4z"/>
<path fill="#F4F3F3" d="M215.3,215.4c0-4.9-4-8.9-8.9-8.9l0,0h-30.9c-4.9,0-8.9,4-8.9,8.9l0,0v30.9c0,4.9,4,8.9,8.9,8.9l0,0h30.9
	c4.9,0,8.9-4,8.9-8.9l0,0V215.4z"/>
<path fill="#F4F3F3" d="M292.6,215.4c0-4.9-4-8.9-8.9-8.9h-30.9c-4.9,0-8.9,4-8.9,8.9l0,0v30.9c0,4.9,4,8.9,8.9,8.9l0,0h30.9
	c4.9,0,8.9-4,8.9-8.9L292.6,215.4L292.6,215.4z"/>
<path fill="#F4F3F3" d="M138,292.8c0-4.9-4-8.9-8.9-8.9h-31c-4.9,0-8.9,4-8.9,8.9v30.9c0,4.9,4,8.9,8.9,8.9h30.9
	c4.9,0,8.9-4,8.9-8.9L138,292.8L138,292.8z"/>
<path fill="#F4F3F3" d="M215.3,292.8c0-4.9-4-8.9-8.9-8.9h-30.9c-4.9,0-8.9,4-8.9,8.9v30.9c0,4.9,4,8.9,8.9,8.9h30.9
	c4.9,0,8.9-4,8.9-8.9V292.8z"/>
<g>
	<g>
		<path fill="#F4F3F3" d="M292.6,292.8c0-4.9-4-8.9-8.9-8.9h-30.9c-4.9,0-8.9,4-8.9,8.9v30.9c0,4.9,4,8.9,8.9,8.9h30.9
			c4.9,0,8.9-4,8.9-8.9L292.6,292.8L292.6,292.8z"/>
		<path fill="#F4F3F3" d="M347.9,43.5v47.2c0,21.3-17.3,38.6-38.6,38.6c0,0,0,0-0.1,0h-24.4c-21.4,0.1-38.8-17.2-38.9-38.6V43.3H136
			v47.4c-0.1,21.4-17.5,38.6-38.9,38.6H72.7c-21.3,0-38.6-17.2-38.7-38.5c0,0,0,0,0-0.1V43.5c-18.9,0.6-33.9,16.1-34,35v276.8
			c0,19.4,15.6,35.1,35,35.2h311.9c19.4-0.1,35-15.8,35-35.2V78.5C381.8,59.5,366.8,44.1,347.9,43.5L347.9,43.5L347.9,43.5z
			 M336.5,338.1c0,8.4-6.8,15.1-15.1,15.1l0,0H59.8c-8.4,0-15.1-6.8-15.1-15.1v-143c0-8.4,6.8-15.1,15.1-15.1h261.6
			c8.4,0,15.1,6.8,15.1,15.1V338.1z"/>
	</g>
</g>
<path fill="#F4F3F3" d="M72.6,104h24.1c7.3,0,13.3-5.9,13.3-13.2c0,0,0-0.1,0-0.1V13.3C110,5.9,104.1,0,96.7,0c0,0,0,0,0,0H72.6
	c-7.3,0-13.3,5.9-13.3,13.3v77.4C59.3,98,65.2,104,72.6,104C72.5,104,72.5,104,72.6,104L72.6,104z"/>
<path fill="#F4F3F3" d="M284.5,104h24.1c7.3,0,13.3-5.9,13.3-13.2c0,0,0,0,0-0.1V13.3C321.9,5.9,316,0,308.6,0c0,0,0,0,0,0h-24.1
	c-7.3,0-13.3,5.9-13.3,13.3c0,0,0,0,0,0v77.4C271.2,98,277.1,104,284.5,104C284.5,104,284.5,104,284.5,104L284.5,104z"/>
</svg>
