<svg id="5b711b13-625c-4c6f-b520-2085faf66bf2" data-name="Camada 1" xmlns="http://www.w3.org/2000/svg" xmlns:xlink="http://www.w3.org/1999/xlink" viewBox="0 0 56 77.39"><defs><style>.\30 3db58b3-0d75-48ad-8d36-380801077fd3{fill:none;}.\33 9a38005-7580-4c74-a649-e607f85149e1{clip-path:url(#7dece504-ae93-4f98-b56a-ea313be91621);}</style><clipPath id="7dece504-ae93-4f98-b56a-ea313be91621" transform="translate(0 0)"><rect class="03db58b3-0d75-48ad-8d36-380801077fd3" width="55.92" height="78"/></clipPath></defs><title>icone-livro</title><g class="39a38005-7580-4c74-a649-e607f85149e1"><path d="M54.59,19.27L18.6,0.71C13.67-1.89,3.95,3.13,1.16,7.55A6.85,6.85,0,0,0,0,11.75l0.44,41.9c0,0.89,1.15,2.09,2.11,2.68,2,1.22,32.24,20.1,33.09,20.64a2.92,2.92,0,0,0,1.54.42,3,3,0,0,0,1.34-.31A2.54,2.54,0,0,0,40,74.82v-44a2.53,2.53,0,0,0-1.41-2.22L5.88,10.34a11.35,11.35,0,0,1,4.5-3.64A6.88,6.88,0,0,1,15.79,6s31.4,16.8,32.36,17.31,1,0.57,1,1.43V66.45c0,2.08,2.12,2.94,3.67,2.94A3.4,3.4,0,0,0,56,66.45v-45a2.54,2.54,0,0,0-1.41-2.22h0Zm0,0" transform="translate(0 0)"/></g></svg>