<?xml version="1.0" encoding="utf-8"?>
<!-- Generator: Adobe Illustrator 19.2.1, SVG Export Plug-In . SVG Version: 6.00 Build 0)  -->
<!DOCTYPE svg PUBLIC "-//W3C//DTD SVG 1.1//EN" "http://www.w3.org/Graphics/SVG/1.1/DTD/svg11.dtd">
<svg version="1.1" id="fb25deb6-0bab-4f88-91f0-1e81fa5872ad"
	 xmlns="http://www.w3.org/2000/svg" xmlns:xlink="http://www.w3.org/1999/xlink" x="0px" y="0px" viewBox="0 0 376 376"
	 enable-background="new 0 0 376 376" xml:space="preserve">
<title>icone-aniversario</title>
<path fill="#9B2C49" d="M370,336h-28.7V197.6c0-21-17-38-38-38H210V105c0-7.7-6.3-14-14-14h-2V73c0-3.3-2.7-6-6-6s-6,2.7-6,6v18h-2
	c-7.7,0-14,6.3-14,14v54.6H67.6c-21,0-38,17-38,38V336H6c-3.3,0-6,2.7-6,6s2.7,6,6,6h3.5l3.5,12.1C15.5,369,24.7,376,34,376h308
	c9.3,0,18.5-7,21.1-15.9l3.5-12.1h3.5c3.3,0,6-2.7,6-6S373.3,336,370,336L370,336z M178,105c0-1.1,0.9-2,2-2h16c1.1,0,2,0.9,2,2
	v54.6h-20V105z M67.6,171.6h235.7c14.4,0,26,11.6,26,26V216c-10.9,1.5-17.2,6.8-22.8,11.5c-6,5.1-10.8,9.1-21.1,9.1
	s-15.1-4-21.1-9.1c-6.6-5.6-14.2-11.9-28.8-11.9s-22.2,6.3-28.8,11.9c-6,5.1-10.8,9.1-21.1,9.1s-15.1-4-21.1-9.1
	c-6.6-5.6-14.2-11.9-28.8-11.9s-22.2,6.3-28.8,11.9c-3.6,3-6.9,5.8-11.2,7.5c-2.3,0.9-3.9,3.1-3.9,5.6v41c0,3.3-2.7,6-6,6
	s-6-2.7-6-6v-40.8c0.1-2.6-1.5-4.9-3.9-5.8c-4.3-1.6-7.7-4.5-11.2-7.5c-5.7-4.8-12-10.1-22.8-11.5v-18.4
	C41.6,183.2,53.2,171.6,67.6,171.6L67.6,171.6C67.6,171.6,67.6,171.6,67.6,171.6z M41.6,228.2c6.4,1.3,10.4,4.6,15.1,8.5
	c3.3,3,6.9,5.6,10.8,7.8v37.2c0,9.9,8.1,18,18,18s18-8.1,18-18v-37.2c3.9-2.2,7.5-4.8,10.8-7.8c6-5.1,10.8-9.1,21.1-9.1
	s15.1,4,21.1,9.1c6.6,5.6,14.2,11.9,28.8,11.9s22.2-6.3,28.8-11.9c6-5.1,10.8-9.1,21.1-9.1s15.1,4,21.1,9.1
	c6.6,5.6,14.2,11.9,28.8,11.9s22.2-6.3,28.8-11.9c4.7-4,8.7-7.3,15.1-8.6V336H41.6V228.2L41.6,228.2z M351.6,356.8
	c-1.1,3.8-5.6,7.2-9.5,7.2H34c-3.9,0-8.5-3.4-9.5-7.2L22,348h332L351.6,356.8z"/>
<path fill="#9B2C49" d="M164,76.4c3.3,0,6-2.7,6-6c0-1.5-0.5-2.9-1.5-4c-4.3-4.8-6.6-11-6.6-17.4c0-14,10.6-28.7,26.2-36.4
	c15.5,7.7,26.2,22.4,26.2,36.4c0,6.4-2.4,12.6-6.6,17.4c-2.2,2.5-2,6.3,0.5,8.5s6.3,2,8.5-0.5c6.2-7,9.7-16,9.7-25.4
	c0-19.4-14.7-39.4-35.8-48.6c-1.5-0.7-3.3-0.7-4.8,0c-21.1,9.2-35.8,29.2-35.8,48.6c0,9.4,3.5,18.4,9.7,25.4
	C160.7,75.7,162.3,76.4,164,76.4L164,76.4L164,76.4z"/>
</svg>
