<svg id="6fe39e17-d906-44ab-9959-9d759f8f311f" data-name="Camada 1" xmlns="http://www.w3.org/2000/svg" viewBox="0 0 20.19 23.71"><defs><style>.aeaee6b3-4ca4-4cd9-ba6f-5a3f152e3d05{fill:#14699c;}.b452e7d1-b3fe-45eb-bdae-e9ffe14774e5{fill:#373435;}</style></defs><title>mob-menu</title><path class="aeaee6b3-4ca4-4cd9-ba6f-5a3f152e3d05" d="M9.92,14H30v3H9.92V14Z" transform="translate(-9.82 -5.36)"/><path class="aeaee6b3-4ca4-4cd9-ba6f-5a3f152e3d05" d="M9.92,20H30v3H9.92V20Z" transform="translate(-9.82 -5.36)"/><path class="aeaee6b3-4ca4-4cd9-ba6f-5a3f152e3d05" d="M9.92,26.06H30v3H9.92v-3Z" transform="translate(-9.82 -5.36)"/><path class="b452e7d1-b3fe-45eb-bdae-e9ffe14774e5" d="M14.74,8.58c0-.8-0.1-1.71-0.1-2.41h0a17.31,17.31,0,0,1-.7,2.11l-1,2.71h-0.5l-0.9-2.71c-0.3-.8-0.5-1.51-0.7-2.21h0c0,0.7-.1,1.61-0.1,2.51L10.62,11H9.82l0.4-5.63h0.9l1,2.71c0.2,0.7.4,1.31,0.6,1.91h0a8.28,8.28,0,0,1,.6-1.91l1-2.71h0.9L15.54,11h-0.7Z" transform="translate(-9.82 -5.36)"/><path class="b452e7d1-b3fe-45eb-bdae-e9ffe14774e5" d="M19.46,8.38H17.25v2h2.41V11H16.45V5.46h3v0.6H17.15V7.87h2.21v0.5h0.1Z" transform="translate(-9.82 -5.36)"/><path class="b452e7d1-b3fe-45eb-bdae-e9ffe14774e5" d="M20.46,11.09V5.46h0.8l1.81,2.81c0.4,0.7.7,1.31,1,1.81h0c0-.7-0.1-1.41-0.1-2.31V5.46h0.7v5.63H24L22.17,8.27a8.75,8.75,0,0,1-1-1.91h0c0,0.7.1,1.41,0.1,2.31v2.41h-0.8Z" transform="translate(-9.82 -5.36)"/><path class="b452e7d1-b3fe-45eb-bdae-e9ffe14774e5" d="M26.59,5.46V8.78c0,1.31.6,1.81,1.31,1.81s1.41-.5,1.41-1.81V5.46H30V8.78c0,1.71-.9,2.41-2.11,2.41s-2-.7-2-2.41V5.46h0.7Z" transform="translate(-9.82 -5.36)"/></svg>